<?xml version="1.0" encoding="utf-8"?>
<!-- Generator: Adobe Illustrator 16.0.0, SVG Export Plug-In . SVG Version: 6.00 Build 0)  -->
<!DOCTYPE svg PUBLIC "-//W3C//DTD SVG 1.1//EN" "http://www.w3.org/Graphics/SVG/1.1/DTD/svg11.dtd">
<svg version="1.1" id="Layer_0_xA0_Image_1_" xmlns="http://www.w3.org/2000/svg" xmlns:xlink="http://www.w3.org/1999/xlink"
	 x="0px" y="0px" width="229.92px" height="231.36px" viewBox="0 0 229.92 231.36" enable-background="new 0 0 229.92 231.36"
	 xml:space="preserve">
<g>
	<path fill-rule="evenodd" clip-rule="evenodd" fill="#CF4B3F" d="M4.713,108.247c0.577-0.302,0.369-0.883,0.402-1.322
		C6.201,92.716,9.929,79.23,16.336,66.516C26.701,45.943,42.01,30.093,62.171,18.944c10.46-5.784,21.612-9.646,33.363-11.766
		c9.22-1.663,18.523-2.162,27.855-1.407c18.864,1.528,36.285,7.377,52.105,17.829c16.396,10.833,29.041,25.034,37.93,42.55
		c5.994,11.812,9.653,24.337,11.093,37.508c0.546,5.004,0.806,10.024,0.643,15.053c-0.499,15.289-3.856,29.913-10.397,43.771
		c-8.25,17.478-20.262,31.836-35.976,43.062c-13.54,9.672-28.552,15.904-44.942,18.752c-10.607,1.843-21.269,2.147-31.973,0.822
		c-24.923-3.087-46.358-13.443-64.286-30.979c-12.56-12.285-21.576-26.851-27.173-43.507c-2.846-8.467-4.628-17.161-5.294-26.078
		c-0.039-0.523,0.154-1.155-0.406-1.562C4.713,118.077,4.713,113.162,4.713,108.247z M161.161,204.552l-0.013,0.013
		c0.494,0.054,0.886-0.208,1.279-0.436c1.857-1.07,3.732-2.112,5.56-3.231c5.103-3.128,9.861-6.72,14.28-10.757
		c3.174-2.9,6.204-5.948,8.99-9.222c1.404-1.649,2.851-3.282,3.998-5.138c4.567-5.867,8.226-12.275,11.273-19.04
		c0.863-1.916,1.779-3.817,2.321-5.862c0.077-0.131,0.176-0.251,0.228-0.391c3.76-10.114,5.789-20.579,6.154-31.351
		c0.376-11.087-1.034-21.958-4.265-32.585c-4.399-14.482-11.713-27.314-21.905-38.481c-9.247-10.132-20.125-18.064-32.626-23.748
		c-11.948-5.432-24.493-8.386-37.594-8.881c-11.003-0.415-21.809,0.904-32.385,4.05c-14.74,4.384-27.782,11.769-39.134,22.117
		c-8.087,7.374-14.797,15.855-20.104,25.443c-8.132,14.688-12.247,30.44-12.577,47.203c-0.088,4.494,0.187,8.974,0.718,13.433
		c0.353,2.959,0.711,5.93,1.544,8.809c0.061,0.453,0.085,0.913,0.186,1.356c1.015,4.481,2.294,8.885,3.934,13.178
		c2.808,7.356,6.319,14.348,10.83,20.818c1.299,2.116,2.786,4.096,4.386,5.993c4.734,6.13,10.195,11.538,16.25,16.355
		c15.34,12.207,32.809,19.233,52.259,21.354c5.912,0.646,11.859,0.674,17.792,0.221c2.284-0.175,4.58-0.344,6.831-0.832
		c1.654-0.011,3.244-0.464,4.85-0.764c2.958-0.551,5.904-1.185,8.761-2.158c2.053-0.465,4.017-1.212,5.995-1.908
		c4.179-1.47,8.212-3.274,12.146-5.301C161.137,204.725,161.149,204.639,161.161,204.552z"/>
	<path fill-rule="evenodd" clip-rule="evenodd" fill="#98CBC4" d="M16.905,136.499c-0.833-2.881-1.192-5.852-1.544-8.811
		c-0.531-4.459-0.806-8.938-0.718-13.433c0.33-16.763,4.445-32.515,12.577-47.203c5.308-9.588,12.018-18.069,20.104-25.443
		c11.352-10.349,24.394-17.733,39.134-22.117c10.576-3.146,21.382-4.465,32.385-4.05c13.101,0.495,25.646,3.449,37.594,8.881
		c12.501,5.684,23.379,13.616,32.626,23.748c10.192,11.167,17.506,23.999,21.905,38.481c3.23,10.627,4.641,21.498,4.265,32.585
		c-0.365,10.771-2.395,21.236-6.154,31.351c-0.052,0.14-0.15,0.26-0.228,0.391c-0.271-0.837-0.551-1.673-0.813-2.512
		c-2.53-8.043-5.017-16.1-7.601-24.125c-1.656-5.144-3.332-10.286-5.442-15.271c-0.847-2-2.053-2.796-3.988-2.523
		c-1.062,0.149-2.115,0.379-3.116,0.78c-3.722,1.492-7.157,3.494-10.387,5.857c-0.514,0.318-0.771,0.26-1.078-0.371
		c-2.195-4.513-4.409-9.017-6.703-13.479c-2.274-4.426-4.508-8.878-7.338-12.996c-1.217-1.771-2.072-1.911-4.037-0.725
		c-0.354,0.214-0.653,0.521-0.977,0.785c-0.903,0.639-1.773,1.327-2.713,1.906c-2.231,1.376-2.741,1.292-4.447-0.556
		c-0.874-1.616-1.78-3.216-2.617-4.852c-5.54-10.82-10.309-22.004-15.541-32.969c-1.519-3.182-2.988-6.398-4.986-9.323
		c-0.933-1.363-2.177-1.166-2.883,0.408c-1.448,1.125-2.338,2.706-3.315,4.193c-5.258,7.999-9.516,16.601-14.79,24.591
		c-1.663,1.406-2.119,1.418-3.657-0.008c-0.472-0.437-0.957-0.856-1.397-1.338c-1.235-1.351-2.497-2.689-4.026-3.726
		c-1.466-0.992-2.361-0.844-3.39,0.528c-1.832,1.435-3.194,3.298-4.586,5.12c-5.127,6.714-9.727,13.79-14.297,20.885
		c-0.294,0.444-0.647,0.859-0.87,1.336c-0.45,0.959-0.929,1.219-1.85,0.449c-0.568-0.475-1.318-0.77-2.029-1.031
		c-3.698-1.36-7.562-1.72-11.464-1.784c-0.945-0.016-1.767,0.39-2.469,1.022c-0.196,0.116-0.407,0.213-0.586,0.352
		c-4.11,3.197-7.565,7.055-11.005,10.928c-7.517,8.462-14.509,17.351-21.449,26.282C20.979,131.317,18.938,133.904,16.905,136.499z"
		/>
	<path fill-rule="evenodd" clip-rule="evenodd" fill="#406574" d="M106.077,69.699c5.274-7.99,9.532-16.592,14.79-24.591
		c0.978-1.487,1.867-3.068,3.316-4.193c0.104,0.365,0.271,0.727,0.303,1.098c0.475,5.641,0.974,11.278,1.376,16.923
		c0.302,4.236,0.524,8.48,0.69,12.725c0.207,5.283,0.432,10.57,0.431,15.855c0,3.053-0.159,6.116-0.338,9.175
		c-0.345,5.903-1.174,11.71-2.789,17.402c-1.447,5.095-3.606,9.838-6.723,14.147c-1.253,1.734-2.765,3.277-3.757,5.211
		c-0.546,1.064-0.433,1.988,0.237,2.896c0.363,0.493,0.759,0.964,1.161,1.425c4.076,4.679,8.125,9.381,11.798,14.388
		c1.536,2.095,3.298,4.146,3.771,6.774c0.568,3.158,0.54,6.37,0.466,9.594c-0.142,6.129-0.416,12.247-0.719,18.369
		c-0.172,3.479-0.399,6.962-0.447,10.442c-0.081,5.867-0.416,11.73-0.271,17.601c-2.251,0.488-4.547,0.657-6.831,0.832
		c-5.933,0.453-11.879,0.425-17.792-0.221c-19.451-2.12-36.919-9.146-52.259-21.354c-6.055-4.817-11.517-10.226-16.25-16.355
		c2.897-4.246,5.335-8.767,7.875-13.223c5.976-10.486,11.633-21.156,18.127-31.343c1.625-2.549,3.238-5.126,5.547-7.144
		c1.213-1.058,1.857-0.806,2.141,0.759c0.92,5.06,2.304,9.988,4.181,14.775c0.545,1.392,1.189,2.743,2.023,3.989
		c0.179,0.266,0.409,0.641,0.817,0.501c0.334-0.115,0.345-0.479,0.338-0.791c-0.029-1.341,0.176-2.678,0.176-4.01
		c0.001-10.236,0.29-20.474-0.358-30.707c-0.324-5.117-0.697-10.223-1.476-15.288c-0.217-1.406-0.104-2.912-0.91-4.201
		c4.57-7.095,9.17-14.171,14.297-20.885c1.392-1.822,2.754-3.686,4.586-5.12c0.351,0.17,0.423,0.534,0.555,0.84
		c1.574,3.628,2.838,7.329,3.226,11.314c0.243,2.498-0.265,4.669-1.752,6.675c-1.095,1.476-2.116,3.008-3.117,4.549
		c-1.004,1.543-1.936,3.133-2.429,4.933c-0.521,1.898,0.116,3.094,1.98,3.766c1.189,0.428,2.381,0.853,3.542,1.351
		c2.105,0.905,3.772,2.269,4.69,4.467c1.109,2.654,1.252,5.448,1.139,8.233c-0.204,4.967-0.551,9.929-0.921,14.887
		c-0.196,2.626-0.576,5.237-0.856,7.857c-0.173,1.62-0.315,3.244-0.479,4.947c0.456-0.314,0.53-0.744,0.676-1.121
		c2.507-6.473,4.464-13.105,5.887-19.902c1.484-7.088,2.437-14.227,2.693-21.474c0.11-3.105,0.041-6.196-0.086-9.289
		c-0.09-2.173-0.372-4.338-0.598-6.504C107.37,76.997,106.702,73.352,106.077,69.699z"/>
	<path fill-rule="evenodd" clip-rule="evenodd" fill="#161D2D" d="M129.373,214.94c-0.145-5.87,0.19-11.733,0.271-17.601
		c0.048-3.48,0.275-6.964,0.447-10.442c0.303-6.122,0.577-12.24,0.719-18.369c0.074-3.224,0.103-6.436-0.466-9.594
		c-0.474-2.628-2.235-4.68-3.771-6.774c-3.673-5.007-7.722-9.709-11.798-14.388c-0.402-0.461-0.798-0.932-1.161-1.425
		c-0.67-0.908-0.784-1.832-0.237-2.896c0.992-1.934,2.504-3.477,3.757-5.211c3.116-4.31,5.275-9.053,6.723-14.147
		c1.615-5.692,2.444-11.499,2.789-17.402c0.179-3.059,0.338-6.122,0.338-9.175c0.001-5.285-0.224-10.572-0.431-15.855
		c-0.166-4.244-0.389-8.488-0.69-12.725c-0.402-5.645-0.901-11.282-1.376-16.923c-0.031-0.371-0.199-0.732-0.303-1.098
		c0.705-1.574,1.949-1.771,2.882-0.408c1.998,2.925,3.468,6.142,4.986,9.323c5.232,10.965,10.001,22.148,15.541,32.969
		c0.837,1.636,1.743,3.235,2.617,4.852c-0.03,0.302-0.11,0.608-0.081,0.904c0.193,1.976,0.463,3.946,0.608,5.927
		c0.415,5.682,0.824,11.365,1.158,17.054c0.289,4.929,0.515,9.861,0.692,14.795c0.201,5.552,0.31,11.105,0.474,16.658
		c0.115,3.913-0.158,7.817-0.248,11.726c-0.026,1.173-0.315,2.346-0.553,3.504c-0.128,0.63-0.304,1.339-1.06,1.517
		c-0.718,0.167-1.133-0.412-1.498-0.874c-0.806-1.021-1.527-2.108-2.312-3.147c-0.271-0.359-0.591-0.811-1.113-0.676
		c-0.543,0.141-0.507,0.691-0.577,1.143c-0.63,4.055-0.591,8.159-0.864,12.239c-0.276,4.124-0.38,8.263-0.47,12.397
		c-0.102,4.71-0.296,9.417-0.454,14.126c-0.192,5.7-0.447,11.394-0.93,17.076c-2.856,0.974-5.803,1.607-8.761,2.158
		C132.617,214.477,131.027,214.93,129.373,214.94z"/>
	<path fill-rule="evenodd" clip-rule="evenodd" fill="#406574" d="M142.983,212.019c0.482-5.683,0.737-11.376,0.93-17.076
		c0.158-4.709,0.353-9.416,0.454-14.126c0.09-4.135,0.193-8.273,0.47-12.397c0.273-4.08,0.234-8.185,0.864-12.239
		c0.07-0.451,0.034-1.002,0.577-1.143c0.522-0.135,0.843,0.316,1.113,0.676c0.784,1.039,1.506,2.127,2.312,3.147
		c0.365,0.462,0.78,1.041,1.498,0.874c0.756-0.178,0.932-0.887,1.06-1.517c0.237-1.158,0.526-2.331,0.553-3.504
		c0.09-3.908,0.363-7.812,0.248-11.726c-0.164-5.553-0.272-11.106-0.474-16.658c-0.178-4.934-0.403-9.866-0.692-14.795
		c-0.334-5.688-0.743-11.372-1.158-17.054c-0.146-1.98-0.415-3.951-0.608-5.927c-0.029-0.296,0.051-0.603,0.081-0.904
		c1.706,1.848,2.216,1.932,4.447,0.556c0.939-0.579,1.81-1.268,2.713-1.906c0.036,2.933,0.572,5.77,1.548,8.537
		c1.863,5.291,4.514,10.221,6.994,15.225c3.247,6.553,6.592,13.058,9.107,19.944c1.332,3.648,2.424,7.395,2.392,11.278
		c-0.036,4.643-1.547,8.941-4.018,12.883c-1.078,1.721-2.211,3.41-3.205,5.177c-0.77,1.367-0.349,2.21,1.119,2.576
		c0.741,0.186,1.498,0.304,2.241,0.478c1.854,0.432,3.79,0.545,5.523,1.453c1.229,0.644,1.814,1.733,1.757,3.004
		c-0.059,1.302-0.047,2.604-0.121,3.903c-0.186,3.205-0.648,6.376-2.513,9.066c-1.993,2.874-3.262,6.037-4.433,9.292
		c-1.644,4.574-4.576,8.254-8.2,11.461c-1.482,1.312-3.211,2.363-4.414,3.987l0.013-0.013c-0.204,0.06-0.18,0.151-0.036,0.258
		c-3.935,2.026-7.968,3.831-12.146,5.301C147,210.807,145.036,211.554,142.983,212.019z"/>
	<path fill-rule="evenodd" clip-rule="evenodd" fill="#161D2D" d="M74.724,91.161c0.805,1.289,0.693,2.795,0.91,4.201
		c0.779,5.065,1.152,10.171,1.476,15.288c0.648,10.233,0.359,20.471,0.358,30.707c0,1.332-0.206,2.669-0.176,4.01
		c0.007,0.312-0.003,0.676-0.338,0.791c-0.409,0.14-0.639-0.235-0.817-0.501c-0.834-1.246-1.479-2.598-2.023-3.989
		c-1.877-4.787-3.261-9.716-4.181-14.775c-0.284-1.564-0.928-1.816-2.141-0.759c-2.309,2.018-3.922,4.595-5.547,7.144
		c-6.495,10.187-12.151,20.856-18.127,31.343c-2.54,4.456-4.979,8.977-7.875,13.223c-1.6-1.897-3.087-3.877-4.386-5.993
		c0.557-2.344,1.207-4.671,1.652-7.036c1.594-8.463,4.182-16.624,7.317-24.626c4.254-10.858,9.166-21.425,14.228-31.921
		c2.701-5.6,3.25-11.259,0.99-17.113c0.702-0.633,1.524-1.038,2.469-1.022c3.902,0.064,7.766,0.424,11.464,1.784
		c0.71,0.262,1.46,0.557,2.029,1.031c0.921,0.77,1.4,0.51,1.85-0.449C74.077,92.021,74.429,91.605,74.724,91.161z"/>
	<path fill-rule="evenodd" clip-rule="evenodd" fill="#161D2D" d="M161.148,204.564c1.203-1.624,2.932-2.676,4.414-3.987
		c3.624-3.207,6.557-6.887,8.2-11.461c1.171-3.255,2.439-6.418,4.433-9.292c1.864-2.69,2.327-5.861,2.513-9.066
		c0.074-1.3,0.062-2.602,0.121-3.903c0.058-1.271-0.527-2.36-1.757-3.004c-1.733-0.908-3.669-1.021-5.523-1.453
		c-0.743-0.174-1.5-0.292-2.241-0.478c-1.468-0.366-1.889-1.209-1.119-2.576c0.994-1.767,2.127-3.456,3.205-5.177
		c2.471-3.941,3.981-8.24,4.018-12.883c0.032-3.884-1.06-7.63-2.392-11.278c-2.516-6.887-5.86-13.392-9.107-19.944
		c-2.48-5.004-5.131-9.934-6.994-15.225c-0.976-2.768-1.512-5.604-1.548-8.537c0.323-0.264,0.622-0.571,0.977-0.785
		c1.965-1.187,2.82-1.047,4.037,0.725c2.83,4.118,5.063,8.57,7.338,12.996c2.294,4.463,4.508,8.967,6.703,13.479
		c0.307,0.631,0.564,0.689,1.078,0.371c2.005,6.068,3.964,12.149,5.817,18.265c2.574,8.496,5.031,17.024,7.322,25.601
		c1.668,6.246,3.229,12.516,4.613,18.83c-1.147,1.855-2.594,3.488-3.998,5.138c-2.786,3.273-5.816,6.321-8.99,9.222
		c-4.419,4.037-9.178,7.629-14.28,10.757c-1.827,1.119-3.702,2.161-5.56,3.231C162.034,204.356,161.642,204.618,161.148,204.564z"/>
	<path fill-rule="evenodd" clip-rule="evenodd" fill="#406574" d="M56.041,91.153c2.26,5.854,1.711,11.514-0.99,17.113
		c-5.062,10.496-9.974,21.062-14.228,31.921c-3.135,8.002-5.723,16.163-7.317,24.626c-0.446,2.365-1.096,4.692-1.652,7.036
		c-4.511-6.471-8.021-13.462-10.83-20.818c-1.64-4.293-2.919-8.696-3.934-13.178c-0.1-0.443-0.125-0.903-0.186-1.355
		c2.033-2.594,4.074-5.181,6.096-7.783c6.94-8.932,13.932-17.82,21.449-26.282c3.44-3.873,6.896-7.73,11.005-10.928
		C55.634,91.366,55.845,91.27,56.041,91.153z"/>
	<path fill-rule="evenodd" clip-rule="evenodd" fill="#406574" d="M195.255,175.781c-1.384-6.314-2.945-12.584-4.613-18.83
		c-2.291-8.576-4.748-17.104-7.322-25.601c-1.854-6.115-3.812-12.196-5.817-18.265c3.229-2.363,6.665-4.365,10.387-5.857
		c1.001-0.401,2.054-0.631,3.116-0.78c1.936-0.272,3.142,0.523,3.988,2.523c2.11,4.984,3.786,10.127,5.442,15.271
		c2.584,8.025,5.07,16.082,7.601,24.125c0.263,0.839,0.542,1.675,0.813,2.512c-0.542,2.045-1.458,3.946-2.321,5.862
		C203.481,163.506,199.823,169.914,195.255,175.781z"/>
	<path fill-rule="evenodd" clip-rule="evenodd" fill="#161D2D" d="M161.125,204.81c-0.144-0.106-0.168-0.198,0.036-0.258
		C161.149,204.639,161.137,204.725,161.125,204.81z"/>
	<path fill-rule="evenodd" clip-rule="evenodd" fill="#161D2D" d="M106.077,69.699c0.625,3.652,1.293,7.298,1.678,10.985
		c0.226,2.166,0.508,4.331,0.598,6.504c0.127,3.093,0.196,6.184,0.086,9.289c-0.256,7.247-1.209,14.386-2.693,21.474
		c-1.423,6.797-3.38,13.43-5.887,19.902c-0.146,0.377-0.22,0.807-0.676,1.121c0.164-1.703,0.305-3.327,0.479-4.947
		c0.28-2.62,0.66-5.231,0.856-7.857c0.371-4.958,0.718-9.92,0.921-14.887c0.114-2.785-0.03-5.579-1.139-8.233
		c-0.918-2.198-2.585-3.562-4.69-4.467c-1.16-0.498-2.353-0.923-3.542-1.351c-1.865-0.672-2.501-1.867-1.98-3.766
		c0.494-1.8,1.425-3.39,2.429-4.933c1.001-1.541,2.022-3.073,3.117-4.549c1.487-2.006,1.995-4.177,1.752-6.675
		c-0.388-3.985-1.652-7.687-3.226-11.314c-0.132-0.306-0.205-0.67-0.555-0.84c1.029-1.372,1.924-1.521,3.39-0.528
		c1.53,1.036,2.791,2.375,4.026,3.726c0.441,0.481,0.926,0.901,1.397,1.338C103.958,71.117,104.414,71.105,106.077,69.699z"/>
</g>
</svg>
