<?xml version="1.0" encoding="utf-8"?>
<!-- Generator: Adobe Illustrator 16.0.0, SVG Export Plug-In . SVG Version: 6.00 Build 0)  -->
<!DOCTYPE svg PUBLIC "-//W3C//DTD SVG 1.1//EN" "http://www.w3.org/Graphics/SVG/1.1/DTD/svg11.dtd">
<svg version="1.1" id="Layer_0_xA0_Image_1_" xmlns="http://www.w3.org/2000/svg" xmlns:xlink="http://www.w3.org/1999/xlink"
	 x="0px" y="0px" width="40px" height="40.25px" viewBox="0 0 40 40.25" enable-background="new 0 0 40 40.25" xml:space="preserve"
	>
<g>
	<path fill-rule="evenodd" clip-rule="evenodd" fill="#CF4B3F" d="M0.5,18.811c0.102-0.053,0.065-0.156,0.071-0.234
		c0.192-2.513,0.852-4.899,1.985-7.147c1.833-3.639,4.541-6.442,8.107-8.415c1.85-1.023,3.823-1.706,5.901-2.081
		c1.631-0.294,3.276-0.382,4.928-0.249c3.336,0.27,6.417,1.305,9.216,3.153c2.9,1.916,5.137,4.428,6.709,7.526
		c1.06,2.089,1.707,4.305,1.962,6.634c0.096,0.885,0.142,1.773,0.113,2.662c-0.089,2.705-0.682,5.291-1.84,7.742
		c-1.458,3.092-3.583,5.631-6.362,7.617c-2.396,1.711-5.05,2.813-7.949,3.317c-1.877,0.326-3.762,0.38-5.655,0.145
		c-4.409-0.546-8.2-2.377-11.371-5.48c-2.222-2.172-3.816-4.748-4.806-7.695c-0.504-1.497-0.819-3.034-0.937-4.612
		C0.564,21.602,0.599,21.49,0.5,21.418C0.5,20.549,0.5,19.68,0.5,18.811z M28.171,35.845l-0.002,0.002
		c0.087,0.009,0.156-0.036,0.227-0.077c0.329-0.189,0.66-0.374,0.983-0.571c0.902-0.553,1.744-1.188,2.526-1.902
		c0.562-0.514,1.098-1.052,1.59-1.631c0.249-0.292,0.505-0.581,0.708-0.909c0.808-1.038,1.455-2.171,1.994-3.368
		c0.152-0.339,0.315-0.675,0.41-1.037c0.014-0.023,0.032-0.044,0.04-0.068c0.666-1.789,1.024-3.64,1.089-5.545
		c0.066-1.961-0.183-3.884-0.754-5.764c-0.779-2.562-2.072-4.831-3.875-6.806c-1.635-1.792-3.559-3.195-5.77-4.201
		c-2.114-0.96-4.333-1.483-6.65-1.571c-1.946-0.073-3.857,0.16-5.728,0.716c-2.607,0.775-4.914,2.082-6.922,3.912
		c-1.431,1.304-2.618,2.805-3.556,4.5c-1.439,2.598-2.167,5.384-2.225,8.349c-0.016,0.795,0.033,1.587,0.127,2.376
		c0.062,0.523,0.125,1.049,0.273,1.559c0.011,0.08,0.015,0.161,0.033,0.24c0.179,0.792,0.406,1.571,0.696,2.331
		c0.497,1.3,1.118,2.537,1.916,3.682c0.23,0.375,0.493,0.725,0.776,1.06c0.837,1.084,1.803,2.042,2.875,2.894
		c2.713,2.159,5.803,3.401,9.243,3.776c1.046,0.114,2.098,0.119,3.147,0.039c0.404-0.031,0.81-0.061,1.208-0.147
		c0.292-0.002,0.574-0.082,0.858-0.135c0.524-0.097,1.044-0.209,1.549-0.382c0.364-0.082,0.711-0.214,1.061-0.338
		c0.739-0.26,1.453-0.579,2.149-0.937C28.167,35.875,28.169,35.86,28.171,35.845z"/>
	<path fill-rule="evenodd" clip-rule="evenodd" fill="#98CBC4" d="M2.656,23.808c-0.147-0.51-0.21-1.035-0.273-1.559
		c-0.094-0.789-0.143-1.581-0.127-2.376c0.058-2.965,0.786-5.751,2.225-8.349c0.938-1.696,2.125-3.196,3.556-4.5
		c2.008-1.831,4.315-3.137,6.922-3.912c1.871-0.557,3.782-0.79,5.728-0.716c2.317,0.087,4.536,0.61,6.65,1.571
		c2.211,1.005,4.135,2.409,5.77,4.201c1.803,1.975,3.096,4.245,3.875,6.806c0.571,1.88,0.821,3.803,0.754,5.764
		c-0.065,1.905-0.424,3.756-1.089,5.545c-0.008,0.024-0.026,0.045-0.04,0.068c-0.047-0.147-0.097-0.295-0.144-0.444
		c-0.448-1.422-0.888-2.848-1.345-4.267c-0.292-0.91-0.589-1.819-0.962-2.701c-0.149-0.354-0.363-0.495-0.706-0.446
		c-0.188,0.026-0.375,0.066-0.551,0.137c-0.658,0.265-1.266,0.619-1.837,1.037c-0.09,0.056-0.136,0.046-0.19-0.065
		c-0.388-0.799-0.78-1.595-1.186-2.384c-0.402-0.783-0.797-1.571-1.298-2.299c-0.215-0.313-0.367-0.338-0.714-0.128
		c-0.062,0.038-0.115,0.092-0.172,0.139c-0.16,0.113-0.313,0.235-0.48,0.337c-0.394,0.243-0.484,0.229-0.786-0.098
		c-0.154-0.286-0.315-0.569-0.463-0.858c-0.98-1.914-1.823-3.892-2.749-5.832c-0.269-0.562-0.528-1.131-0.882-1.649
		c-0.165-0.241-0.385-0.206-0.51,0.072c-0.256,0.199-0.413,0.479-0.586,0.742c-0.93,1.415-1.683,2.937-2.616,4.35
		c-0.293,0.249-0.375,0.251-0.646-0.001c-0.083-0.077-0.169-0.151-0.247-0.237c-0.218-0.239-0.441-0.476-0.712-0.659
		c-0.26-0.176-0.417-0.149-0.6,0.093c-0.324,0.254-0.564,0.584-0.811,0.906c-0.907,1.187-1.72,2.439-2.528,3.694
		c-0.053,0.079-0.115,0.152-0.154,0.236c-0.08,0.17-0.165,0.216-0.327,0.08c-0.101-0.083-0.233-0.136-0.359-0.182
		c-0.654-0.241-1.337-0.304-2.028-0.316c-0.167-0.003-0.312,0.069-0.437,0.181c-0.035,0.021-0.072,0.038-0.104,0.062
		c-0.727,0.565-1.338,1.248-1.947,1.933c-1.33,1.496-2.566,3.069-3.794,4.648C3.377,22.892,3.016,23.349,2.656,23.808z"/>
	<path fill-rule="evenodd" clip-rule="evenodd" fill="#406574" d="M18.428,11.992c0.934-1.413,1.687-2.935,2.616-4.35
		c0.173-0.263,0.331-0.542,0.586-0.742c0.018,0.065,0.049,0.129,0.054,0.194c0.084,0.998,0.172,1.995,0.244,2.993
		c0.053,0.75,0.092,1.5,0.122,2.251c0.037,0.935,0.076,1.87,0.076,2.805c0,0.54-0.027,1.082-0.06,1.622
		c-0.061,1.044-0.208,2.072-0.494,3.079c-0.255,0.9-0.638,1.739-1.188,2.502c-0.222,0.307-0.49,0.58-0.665,0.922
		c-0.097,0.188-0.076,0.352,0.042,0.512c0.064,0.087,0.134,0.17,0.206,0.252c0.721,0.827,1.437,1.659,2.086,2.544
		c0.271,0.371,0.584,0.734,0.667,1.199c0.1,0.558,0.095,1.126,0.082,1.697c-0.025,1.084-0.073,2.167-0.127,3.249
		c-0.03,0.615-0.071,1.232-0.079,1.847c-0.015,1.038-0.074,2.075-0.049,3.113c-0.398,0.086-0.804,0.116-1.208,0.147
		c-1.049,0.08-2.101,0.075-3.147-0.039c-3.44-0.375-6.53-1.618-9.243-3.776c-1.071-0.852-2.037-1.809-2.875-2.894
		c0.512-0.75,0.943-1.55,1.393-2.338c1.057-1.855,2.058-3.742,3.207-5.543c0.287-0.452,0.572-0.908,0.981-1.264
		c0.215-0.188,0.329-0.143,0.378,0.134c0.163,0.894,0.408,1.766,0.74,2.613c0.096,0.247,0.21,0.485,0.358,0.706
		c0.031,0.047,0.072,0.113,0.144,0.088c0.059-0.02,0.061-0.085,0.06-0.14c-0.005-0.237,0.031-0.473,0.031-0.708
		c0-1.811,0.051-3.622-0.063-5.432c-0.057-0.905-0.123-1.808-0.261-2.704c-0.039-0.249-0.019-0.515-0.161-0.743
		c0.808-1.255,1.622-2.507,2.528-3.694c0.247-0.322,0.487-0.652,0.811-0.906c0.062,0.031,0.075,0.095,0.098,0.148
		c0.279,0.642,0.502,1.296,0.571,2.001c0.043,0.442-0.046,0.826-0.31,1.181c-0.193,0.261-0.374,0.532-0.551,0.805
		s-0.342,0.554-0.43,0.873c-0.092,0.336,0.021,0.547,0.351,0.666c0.21,0.075,0.421,0.15,0.626,0.239
		c0.372,0.16,0.667,0.401,0.83,0.79c0.196,0.47,0.221,0.964,0.202,1.457c-0.037,0.878-0.098,1.756-0.164,2.633
		c-0.034,0.464-0.102,0.926-0.151,1.39c-0.03,0.287-0.056,0.574-0.084,0.875c0.081-0.055,0.094-0.131,0.12-0.198
		c0.443-1.146,0.79-2.318,1.042-3.521c0.262-1.253,0.431-2.516,0.476-3.798c0.02-0.549,0.007-1.096-0.016-1.643
		c-0.016-0.384-0.065-0.768-0.105-1.15C18.657,13.283,18.54,12.638,18.428,11.992z"/>
	<path fill-rule="evenodd" clip-rule="evenodd" fill="#161D2D" d="M22.549,37.682c-0.025-1.039,0.034-2.076,0.049-3.113
		c0.007-0.615,0.048-1.232,0.079-1.847c0.054-1.083,0.102-2.165,0.127-3.249c0.013-0.57,0.018-1.139-0.082-1.697
		c-0.083-0.464-0.396-0.828-0.667-1.199c-0.649-0.885-1.365-1.717-2.086-2.544c-0.072-0.082-0.142-0.165-0.206-0.252
		c-0.118-0.161-0.139-0.324-0.042-0.512c0.175-0.342,0.443-0.615,0.665-0.922c0.55-0.763,0.933-1.602,1.188-2.502
		c0.286-1.007,0.433-2.034,0.494-3.079c0.032-0.541,0.06-1.083,0.06-1.622c0-0.935-0.039-1.87-0.076-2.805
		c-0.029-0.751-0.068-1.501-0.122-2.251c-0.071-0.999-0.159-1.995-0.244-2.993c-0.005-0.065-0.036-0.129-0.054-0.194
		c0.125-0.278,0.345-0.313,0.51-0.072c0.354,0.518,0.614,1.086,0.882,1.649c0.926,1.94,1.769,3.918,2.749,5.832
		c0.147,0.29,0.309,0.572,0.463,0.858c-0.006,0.053-0.02,0.108-0.015,0.16c0.035,0.35,0.082,0.698,0.108,1.048
		c0.073,1.004,0.146,2.01,0.205,3.016c0.051,0.872,0.091,1.745,0.123,2.617c0.035,0.982,0.054,1.964,0.083,2.947
		c0.02,0.691-0.028,1.383-0.044,2.074c-0.004,0.208-0.056,0.415-0.098,0.62c-0.023,0.111-0.055,0.236-0.188,0.268
		c-0.126,0.029-0.2-0.072-0.265-0.154c-0.143-0.181-0.27-0.373-0.409-0.557c-0.048-0.062-0.104-0.143-0.196-0.119
		c-0.096,0.024-0.09,0.122-0.103,0.202c-0.112,0.717-0.104,1.443-0.152,2.165c-0.05,0.729-0.068,1.462-0.083,2.193
		c-0.018,0.833-0.052,1.666-0.081,2.499c-0.034,1.008-0.079,2.015-0.165,3.02c-0.505,0.172-1.025,0.285-1.549,0.382
		C23.123,37.601,22.841,37.68,22.549,37.682z"/>
	<path fill-rule="evenodd" clip-rule="evenodd" fill="#406574" d="M24.956,37.165c0.085-1.005,0.13-2.012,0.165-3.02
		c0.029-0.833,0.063-1.666,0.081-2.499c0.015-0.731,0.033-1.463,0.083-2.193c0.048-0.722,0.041-1.448,0.152-2.165
		c0.012-0.08,0.006-0.177,0.103-0.202c0.092-0.024,0.148,0.056,0.196,0.119c0.139,0.184,0.267,0.376,0.409,0.557
		c0.065,0.082,0.138,0.184,0.265,0.154c0.133-0.031,0.165-0.156,0.188-0.268c0.042-0.205,0.093-0.412,0.098-0.62
		c0.016-0.691,0.064-1.383,0.044-2.074c-0.029-0.982-0.048-1.965-0.083-2.947c-0.032-0.872-0.072-1.745-0.123-2.617
		c-0.059-1.006-0.131-2.012-0.205-3.016c-0.026-0.351-0.073-0.699-0.108-1.048c-0.005-0.052,0.009-0.107,0.015-0.16
		c0.302,0.327,0.392,0.341,0.786,0.098c0.167-0.102,0.32-0.224,0.48-0.337c0.007,0.519,0.101,1.02,0.274,1.51
		c0.329,0.935,0.798,1.808,1.237,2.692c0.574,1.159,1.166,2.31,1.611,3.528c0.235,0.646,0.429,1.308,0.423,1.995
		c-0.007,0.821-0.273,1.582-0.71,2.279c-0.191,0.305-0.391,0.604-0.567,0.916c-0.136,0.242-0.062,0.39,0.198,0.455
		c0.131,0.033,0.265,0.054,0.396,0.084c0.329,0.076,0.67,0.096,0.977,0.257c0.218,0.114,0.322,0.307,0.311,0.531
		c-0.01,0.23-0.008,0.461-0.022,0.69c-0.032,0.567-0.114,1.128-0.443,1.603c-0.354,0.509-0.577,1.068-0.785,1.644
		c-0.291,0.81-0.81,1.46-1.45,2.028c-0.263,0.231-0.568,0.418-0.781,0.705l0.002-0.002c-0.036,0.01-0.031,0.026-0.006,0.045
		c-0.696,0.358-1.41,0.677-2.149,0.937C25.667,36.951,25.32,37.083,24.956,37.165z"/>
	<path fill-rule="evenodd" clip-rule="evenodd" fill="#161D2D" d="M12.883,15.789c0.142,0.228,0.122,0.494,0.161,0.743
		c0.138,0.896,0.204,1.799,0.261,2.704c0.115,1.81,0.064,3.621,0.063,5.432c0,0.235-0.036,0.471-0.031,0.708
		c0.001,0.055-0.001,0.12-0.06,0.14c-0.072,0.025-0.113-0.041-0.144-0.088c-0.148-0.22-0.262-0.459-0.358-0.706
		c-0.332-0.847-0.577-1.719-0.74-2.613c-0.05-0.277-0.164-0.322-0.378-0.134c-0.409,0.356-0.694,0.812-0.981,1.264
		c-1.149,1.801-2.15,3.688-3.207,5.543C7.02,29.57,6.588,30.37,6.076,31.12C5.793,30.785,5.53,30.435,5.3,30.06
		c0.099-0.414,0.214-0.826,0.292-1.244c0.283-1.497,0.74-2.94,1.294-4.356c0.752-1.92,1.621-3.789,2.517-5.646
		c0.478-0.99,0.575-1.992,0.175-3.027c0.124-0.112,0.27-0.184,0.437-0.181c0.69,0.012,1.374,0.075,2.028,0.316
		c0.125,0.046,0.258,0.099,0.359,0.182c0.163,0.136,0.248,0.09,0.327-0.08C12.769,15.94,12.831,15.867,12.883,15.789z"/>
	<path fill-rule="evenodd" clip-rule="evenodd" fill="#161D2D" d="M28.169,35.847c0.212-0.287,0.518-0.474,0.781-0.705
		c0.641-0.568,1.16-1.219,1.45-2.028c0.208-0.575,0.431-1.135,0.785-1.644c0.329-0.475,0.411-1.036,0.443-1.603
		c0.014-0.229,0.012-0.46,0.022-0.69c0.011-0.225-0.093-0.417-0.311-0.531c-0.307-0.161-0.648-0.181-0.977-0.257
		c-0.131-0.03-0.265-0.051-0.396-0.084c-0.26-0.065-0.334-0.213-0.198-0.455c0.176-0.312,0.376-0.611,0.567-0.916
		c0.437-0.697,0.704-1.458,0.71-2.279c0.006-0.687-0.188-1.349-0.423-1.995c-0.445-1.218-1.037-2.369-1.611-3.528
		c-0.439-0.885-0.908-1.757-1.237-2.692c-0.173-0.49-0.268-0.992-0.274-1.51c0.057-0.047,0.11-0.101,0.172-0.139
		c0.348-0.21,0.499-0.185,0.714,0.128c0.5,0.729,0.896,1.516,1.298,2.299c0.406,0.789,0.798,1.585,1.186,2.384
		c0.054,0.111,0.1,0.122,0.19,0.065c0.354,1.073,0.701,2.149,1.029,3.23c0.455,1.503,0.89,3.011,1.295,4.528
		c0.295,1.105,0.571,2.214,0.816,3.331c-0.203,0.329-0.459,0.617-0.708,0.909c-0.492,0.579-1.028,1.118-1.59,1.631
		c-0.782,0.714-1.624,1.349-2.526,1.902c-0.323,0.198-0.654,0.382-0.983,0.571C28.326,35.811,28.257,35.856,28.169,35.847z"/>
	<path fill-rule="evenodd" clip-rule="evenodd" fill="#406574" d="M9.579,15.787c0.399,1.035,0.302,2.037-0.175,3.027
		c-0.896,1.856-1.764,3.725-2.517,5.646c-0.554,1.416-1.012,2.859-1.294,4.356c-0.078,0.418-0.193,0.83-0.292,1.244
		c-0.797-1.145-1.419-2.381-1.916-3.682c-0.29-0.76-0.517-1.539-0.696-2.331c-0.018-0.079-0.022-0.16-0.033-0.24
		c0.36-0.459,0.721-0.916,1.078-1.377c1.228-1.58,2.464-3.152,3.794-4.648c0.608-0.685,1.22-1.368,1.947-1.933
		C9.506,15.825,9.544,15.808,9.579,15.787z"/>
	<path fill-rule="evenodd" clip-rule="evenodd" fill="#406574" d="M34.202,30.755c-0.245-1.117-0.521-2.225-0.816-3.331
		c-0.405-1.517-0.84-3.025-1.295-4.528c-0.329-1.082-0.675-2.157-1.029-3.23c0.571-0.418,1.179-0.772,1.837-1.037
		c0.177-0.071,0.364-0.111,0.551-0.137c0.343-0.049,0.556,0.092,0.706,0.446c0.373,0.882,0.67,1.791,0.962,2.701
		c0.457,1.419,0.897,2.845,1.345,4.267c0.046,0.149,0.096,0.296,0.144,0.444c-0.095,0.362-0.258,0.698-0.41,1.037
		C35.657,28.584,35.01,29.717,34.202,30.755z"/>
	<path fill-rule="evenodd" clip-rule="evenodd" fill="#161D2D" d="M28.166,35.89c-0.025-0.019-0.03-0.035,0.006-0.045
		C28.169,35.86,28.167,35.875,28.166,35.89z"/>
	<path fill-rule="evenodd" clip-rule="evenodd" fill="#161D2D" d="M18.428,11.992c0.111,0.646,0.229,1.291,0.297,1.943
		c0.04,0.383,0.09,0.766,0.105,1.15c0.022,0.547,0.035,1.093,0.016,1.643c-0.045,1.282-0.214,2.545-0.476,3.798
		c-0.252,1.202-0.598,2.375-1.042,3.521c-0.026,0.067-0.039,0.143-0.12,0.198c0.029-0.301,0.054-0.588,0.084-0.875
		c0.049-0.464,0.117-0.926,0.151-1.39c0.066-0.877,0.127-1.754,0.164-2.633c0.02-0.493-0.005-0.987-0.202-1.457
		c-0.163-0.389-0.458-0.63-0.83-0.79c-0.206-0.088-0.416-0.164-0.626-0.239c-0.33-0.119-0.442-0.33-0.351-0.666
		c0.087-0.318,0.252-0.6,0.43-0.873s0.358-0.543,0.551-0.805c0.264-0.354,0.353-0.739,0.31-1.181
		c-0.068-0.705-0.292-1.359-0.571-2.001c-0.023-0.054-0.036-0.118-0.098-0.148c0.183-0.242,0.34-0.269,0.6-0.093
		c0.271,0.183,0.494,0.42,0.712,0.659c0.078,0.085,0.164,0.16,0.247,0.237C18.054,12.243,18.135,12.241,18.428,11.992z"/>
</g>
</svg>
